<?xml version="1.0" encoding="utf-8"?>
<!-- Generator: Adobe Illustrator 21.0.0, SVG Export Plug-In . SVG Version: 6.00 Build 0)  -->
<svg version="1.1" id="Layer_1" xmlns="http://www.w3.org/2000/svg" xmlns:xlink="http://www.w3.org/1999/xlink" x="0px" y="0px"
	 viewBox="0 0 55.8 56.5" style="enable-background:new 0 0 55.8 56.5;" xml:space="preserve">
<style type="text/css">
	.st0{fill:#77A1B9;}
	.st1{fill:none;}
	.st2{fill:#005782;}
</style>
<g>
	<circle class="st0" cx="32.9" cy="28.2" r="7.7"/>
	<path class="st1" d="M41.2,52c-0.1,0-0.2,0-0.3,0c-0.1,0-0.2,0-0.3,0c-0.1,0-0.2,0-0.3,0.1c-0.1,0-0.2,0.1-0.2,0.1
		c-0.1,0-0.1,0.1-0.2,0.2c0,0.1-0.1,0.2-0.1,0.3c0,0.1,0,0.2,0.1,0.3c0,0.1,0.1,0.1,0.2,0.2c0.1,0,0.2,0.1,0.2,0.1
		c0.1,0,0.2,0,0.3,0c0.2,0,0.4,0,0.6-0.1c0.1-0.1,0.2-0.2,0.3-0.3c0.1-0.1,0.1-0.2,0.1-0.3c0-0.1,0-0.2,0-0.3v-0.5
		c-0.1,0-0.1,0.1-0.2,0.1C41.4,52,41.3,52,41.2,52z"/>
	<path class="st1" d="M10.3,4.5c-0.1-0.2-0.4-0.2-0.7-0.2c-0.2,0-0.4,0-0.5,0.1C9.1,4.4,9,4.5,8.9,4.6C8.8,4.7,8.7,4.8,8.7,4.9
		c0,0.1,0,0.2-0.1,0.3h2C10.6,4.9,10.5,4.6,10.3,4.5z"/>
	<path class="st1" d="M28.7,50.4c-0.2,0-0.4,0-0.5,0.1c-0.1,0.1-0.2,0.1-0.3,0.2c-0.1,0.1-0.1,0.2-0.2,0.3c0,0.1-0.1,0.2-0.1,0.3h2
		c-0.1-0.3-0.2-0.5-0.3-0.7C29.2,50.5,29,50.4,28.7,50.4z"/>
	<path class="st1" d="M48.5,4.5c-0.1-0.2-0.4-0.2-0.7-0.2c-0.2,0-0.4,0-0.5,0.1c-0.1,0.1-0.2,0.1-0.3,0.2c-0.1,0.1-0.1,0.2-0.2,0.3
		c0,0.1,0,0.2-0.1,0.3h2C48.7,4.9,48.6,4.6,48.5,4.5z"/>
	<path class="st1" d="M28.5,4.5c-0.1-0.2-0.4-0.2-0.7-0.2c-0.2,0-0.4,0-0.5,0.1c-0.1,0.1-0.2,0.1-0.3,0.2c-0.1,0.1-0.1,0.2-0.2,0.3
		c0,0.1,0,0.2-0.1,0.3h2C28.7,4.9,28.6,4.6,28.5,4.5z"/>
	<polygon class="st1" points="8.5,49.4 7.7,51.7 9.3,51.7 8.5,49.4 	"/>
	<path class="st2" d="M6.6,44.7H17V34.3c2.4,6.4,8.7,11,16,11c9.4,0,17.1-7.6,17.1-17.1c0-3.5-1.1-6.8-2.9-9.5c0.2,0,0.4,0,0.7,0
		c0.3,0,0.6,0,1-0.1v-1.3c-0.2,0-0.3,0-0.4,0c-0.4,0-0.6-0.1-0.6-0.5v-2.4h1.1v-1.1h-1.1v-1.6h-1.7v1.6H45v1.1h0.9v2.4
		c0,0.1,0,0.2,0,0.3c-3.1-3.7-7.8-6-13-6c-7.3,0-13.5,4.6-16,11V11.8H8.1C7.3,14.3,4.5,17,0.4,17v5.4h6.2V44.7z M32.9,20.5
		c4.3,0,7.7,3.5,7.7,7.7c0,4.3-3.5,7.7-7.7,7.7c-4.3,0-7.7-3.5-7.7-7.7C25.2,24,28.7,20.5,32.9,20.5z"/>
	<path class="st2" d="M2.3,6.6c0.3,0.3,0.6,0.5,0.9,0.7C3.6,7.4,4,7.5,4.5,7.5c0.4,0,0.7-0.1,1-0.2c0.3-0.1,0.6-0.3,0.8-0.5
		c0.2-0.2,0.4-0.5,0.6-0.8c0.1-0.3,0.2-0.6,0.3-1H5.8C5.8,5.5,5.6,5.8,5.4,6C5.2,6.3,4.9,6.4,4.5,6.4c-0.3,0-0.6-0.1-0.8-0.2
		C3.5,6.1,3.3,6,3.2,5.8C3.1,5.6,3,5.4,2.9,5.1C2.8,4.9,2.8,4.6,2.8,4.4c0-0.3,0-0.5,0.1-0.8C3,3.4,3.1,3.2,3.2,3
		c0.1-0.2,0.3-0.3,0.5-0.5c0.2-0.1,0.5-0.2,0.8-0.2c0.2,0,0.3,0,0.5,0.1c0.1,0.1,0.3,0.1,0.4,0.2C5.4,2.7,5.5,2.8,5.6,3
		c0.1,0.1,0.1,0.3,0.2,0.4h1.3C7,3,6.9,2.7,6.8,2.4C6.6,2.2,6.4,2,6.2,1.8C6,1.6,5.7,1.4,5.4,1.4C5.1,1.3,4.8,1.2,4.5,1.2
		C4,1.2,3.6,1.3,3.2,1.5C2.8,1.6,2.5,1.8,2.3,2.1C2,2.4,1.8,2.8,1.7,3.1C1.6,3.5,1.5,3.9,1.5,4.4c0,0.4,0.1,0.8,0.2,1.2
		C1.8,6,2,6.3,2.3,6.6z"/>
	<path class="st2" d="M8.1,6.9c0.2,0.2,0.4,0.4,0.7,0.5C9,7.4,9.3,7.5,9.7,7.5c0.5,0,0.9-0.1,1.3-0.3c0.3-0.2,0.6-0.6,0.8-1.1h-1.1
		c0,0.1-0.1,0.3-0.3,0.4C10.2,6.5,10,6.6,9.7,6.6C9.4,6.6,9.1,6.5,9,6.3C8.8,6.2,8.7,5.9,8.7,5.5h3.1c0-0.3,0-0.7-0.1-1
		c-0.1-0.3-0.2-0.6-0.4-0.8c-0.2-0.2-0.4-0.4-0.7-0.6c-0.3-0.1-0.6-0.2-1-0.2C9.4,2.9,9.1,3,8.8,3.1C8.5,3.2,8.3,3.4,8.1,3.6
		C7.9,3.8,7.7,4,7.6,4.3C7.5,4.6,7.5,4.9,7.5,5.2c0,0.3,0.1,0.6,0.2,0.9C7.7,6.4,7.9,6.7,8.1,6.9z M8.7,4.4c0-0.1,0.1-0.2,0.2-0.3
		C9,4,9.1,4,9.2,3.9c0.1-0.1,0.3-0.1,0.5-0.1c0.3,0,0.5,0.1,0.7,0.2c0.1,0.2,0.2,0.4,0.3,0.7h-2C8.7,4.6,8.7,4.5,8.7,4.4z"/>
	<rect x="12.2" y="1.4" class="st2" width="1.2" height="6"/>
	<rect x="14" y="1.4" class="st2" width="1.2" height="6"/>
	<path class="st2" d="M21,6.3c-0.1,0.1-0.2,0.1-0.4,0.1c-0.1,0-0.3,0-0.4,0c-0.2,0-0.3,0-0.5-0.1c-0.2,0-0.3-0.1-0.4-0.2
		c-0.1-0.1-0.2-0.2-0.3-0.3C19,5.8,19,5.6,19,5.4h-1.3c0,0.4,0.1,0.7,0.2,1C18,6.6,18.2,6.8,18.4,7c0.2,0.2,0.5,0.3,0.8,0.4
		c0.3,0.1,0.6,0.1,1,0.1c0.4,0,0.8,0,1.1-0.1c0.3-0.1,0.6-0.2,0.8-0.4c0.2-0.2,0.4-0.4,0.5-0.6c0.1-0.2,0.2-0.5,0.2-0.8
		c0-0.3-0.1-0.6-0.2-0.8c-0.1-0.2-0.3-0.4-0.5-0.5C21.8,4.1,21.6,4,21.4,4c-0.2-0.1-0.4-0.1-0.5-0.1c-0.4-0.1-0.7-0.2-0.9-0.2
		c-0.2-0.1-0.4-0.1-0.5-0.2c-0.1-0.1-0.2-0.1-0.3-0.2c0-0.1-0.1-0.2-0.1-0.3c0-0.1,0-0.2,0.1-0.3c0.1-0.1,0.1-0.2,0.2-0.2
		c0.1-0.1,0.2-0.1,0.3-0.1c0.1,0,0.2,0,0.3,0c0.2,0,0.3,0,0.5,0c0.1,0,0.3,0.1,0.4,0.1c0.1,0.1,0.2,0.2,0.3,0.3
		c0.1,0.1,0.1,0.3,0.1,0.4h1.3c0-0.3-0.1-0.6-0.2-0.9C22.2,2,22,1.8,21.8,1.7c-0.2-0.2-0.5-0.3-0.8-0.3c-0.3-0.1-0.6-0.1-0.9-0.1
		c-0.3,0-0.5,0-0.8,0.1c-0.3,0.1-0.5,0.2-0.7,0.3c-0.2,0.2-0.4,0.3-0.5,0.6c-0.1,0.2-0.2,0.5-0.2,0.8c0,0.3,0.1,0.5,0.2,0.7
		c0.1,0.2,0.2,0.4,0.4,0.5c0.2,0.1,0.4,0.2,0.6,0.3c0.2,0.1,0.4,0.2,0.7,0.2c0.2,0.1,0.4,0.1,0.7,0.2C20.5,5,20.7,5,20.9,5.1
		c0.2,0.1,0.3,0.2,0.4,0.3c0.1,0.1,0.2,0.2,0.2,0.4c0,0.2,0,0.3-0.1,0.4C21.3,6.2,21.2,6.3,21,6.3z"/>
	<path class="st2" d="M23.5,6.4c0,0.2,0,0.4,0.1,0.5c0.1,0.1,0.2,0.2,0.3,0.3c0.1,0.1,0.3,0.1,0.4,0.1c0.2,0,0.3,0,0.5,0
		c0.1,0,0.2,0,0.4,0c0.1,0,0.2,0,0.3,0V6.5c-0.1,0-0.1,0-0.2,0c-0.1,0-0.1,0-0.2,0c-0.2,0-0.3,0-0.4-0.1c-0.1-0.1-0.1-0.2-0.1-0.4
		V3.8h0.9V3h-0.9V1.7h-1.2V3h-0.7v0.8h0.7V6.4z"/>
	<path class="st2" d="M26.2,6.9c0.2,0.2,0.4,0.4,0.7,0.5c0.3,0.1,0.6,0.2,0.9,0.2c0.5,0,0.9-0.1,1.3-0.3c0.3-0.2,0.6-0.6,0.8-1.1
		h-1.1c0,0.1-0.1,0.3-0.3,0.4c-0.2,0.1-0.4,0.2-0.6,0.2c-0.3,0-0.6-0.1-0.8-0.3c-0.2-0.2-0.3-0.5-0.3-0.8H30c0-0.3,0-0.7-0.1-1
		c-0.1-0.3-0.2-0.6-0.4-0.8c-0.2-0.2-0.4-0.4-0.7-0.6c-0.3-0.1-0.6-0.2-1-0.2c-0.3,0-0.6,0.1-0.9,0.2c-0.3,0.1-0.5,0.3-0.7,0.5
		c-0.2,0.2-0.3,0.4-0.5,0.7c-0.1,0.3-0.2,0.6-0.2,0.9c0,0.3,0.1,0.6,0.2,0.9C25.9,6.4,26,6.7,26.2,6.9z M26.9,4.4
		c0-0.1,0.1-0.2,0.2-0.3C27.1,4,27.2,4,27.4,3.9c0.1-0.1,0.3-0.1,0.5-0.1c0.3,0,0.5,0.1,0.7,0.2c0.1,0.2,0.2,0.4,0.3,0.7h-2
		C26.8,4.6,26.9,4.5,26.9,4.4z"/>
	<path class="st2" d="M31.6,4.8c0-0.2,0-0.4,0.1-0.5c0.1-0.1,0.1-0.2,0.2-0.3C32,4,32.1,3.9,32.2,3.9c0.1,0,0.2,0,0.2,0
		c0.2,0,0.3,0,0.4,0.1C33,4,33,4.1,33.1,4.2c0,0.1,0.1,0.2,0.1,0.4c0,0.1,0,0.3,0,0.4v2.4h1.2V4.9c0-0.1,0-0.3,0-0.4
		c0-0.1,0.1-0.3,0.1-0.4c0.1-0.1,0.1-0.2,0.2-0.3c0.1-0.1,0.2-0.1,0.4-0.1c0.2,0,0.3,0,0.4,0.1c0.1,0.1,0.2,0.1,0.2,0.2
		c0.1,0.1,0.1,0.2,0.1,0.3c0,0.1,0,0.3,0,0.4v2.5h1.2V4.5c0-0.3,0-0.5-0.1-0.7c-0.1-0.2-0.2-0.4-0.3-0.5C36.5,3.1,36.3,3,36.1,3
		c-0.2-0.1-0.4-0.1-0.6-0.1c-0.3,0-0.6,0.1-0.8,0.2c-0.2,0.1-0.4,0.3-0.5,0.5c-0.1-0.3-0.3-0.5-0.5-0.6c-0.2-0.1-0.5-0.2-0.8-0.2
		c-0.3,0-0.5,0.1-0.8,0.2c-0.2,0.1-0.4,0.3-0.6,0.5h0V3h-1.1v4.4h1.2V4.8z"/>
	<path class="st2" d="M40.3,6.6c0.3,0.3,0.6,0.5,0.9,0.7c0.4,0.2,0.8,0.2,1.2,0.2c0.4,0,0.7-0.1,1-0.2c0.3-0.1,0.6-0.3,0.8-0.5
		c0.2-0.2,0.4-0.5,0.6-0.8c0.1-0.3,0.2-0.6,0.3-1h-1.3c-0.1,0.4-0.2,0.7-0.4,1c-0.2,0.2-0.5,0.4-0.9,0.4c-0.3,0-0.6-0.1-0.8-0.2
		c-0.2-0.1-0.4-0.3-0.5-0.5C41.1,5.6,41,5.4,41,5.1c-0.1-0.2-0.1-0.5-0.1-0.7c0-0.3,0-0.5,0.1-0.8C41,3.4,41.1,3.2,41.2,3
		c0.1-0.2,0.3-0.3,0.5-0.5c0.2-0.1,0.5-0.2,0.8-0.2c0.2,0,0.3,0,0.5,0.1c0.1,0.1,0.3,0.1,0.4,0.2c0.1,0.1,0.2,0.2,0.3,0.3
		c0.1,0.1,0.1,0.3,0.2,0.4h1.3c0-0.3-0.1-0.7-0.3-0.9c-0.2-0.3-0.3-0.5-0.6-0.7c-0.2-0.2-0.5-0.3-0.8-0.4c-0.3-0.1-0.6-0.1-0.9-0.1
		c-0.5,0-0.9,0.1-1.2,0.2c-0.4,0.2-0.7,0.4-0.9,0.7c-0.3,0.3-0.4,0.6-0.6,1c-0.1,0.4-0.2,0.8-0.2,1.3c0,0.4,0.1,0.8,0.2,1.2
		C39.9,6,40.1,6.3,40.3,6.6z"/>
	<path class="st2" d="M46.2,6.9c0.2,0.2,0.4,0.4,0.7,0.5c0.3,0.1,0.6,0.2,0.9,0.2c0.5,0,0.9-0.1,1.3-0.3c0.3-0.2,0.6-0.6,0.8-1.1
		h-1.1c0,0.1-0.1,0.3-0.3,0.4c-0.2,0.1-0.4,0.2-0.6,0.2c-0.3,0-0.6-0.1-0.8-0.3c-0.2-0.2-0.3-0.5-0.3-0.8H50c0-0.3,0-0.7-0.1-1
		c-0.1-0.3-0.2-0.6-0.4-0.8c-0.2-0.2-0.4-0.4-0.7-0.6c-0.3-0.1-0.6-0.2-1-0.2c-0.3,0-0.6,0.1-0.9,0.2c-0.3,0.1-0.5,0.3-0.7,0.5
		C46,3.8,45.9,4,45.8,4.3c-0.1,0.3-0.2,0.6-0.2,0.9c0,0.3,0.1,0.6,0.2,0.9C45.9,6.4,46,6.7,46.2,6.9z M46.9,4.4
		c0-0.1,0.1-0.2,0.2-0.3C47.1,4,47.2,4,47.3,3.9c0.1-0.1,0.3-0.1,0.5-0.1c0.3,0,0.5,0.1,0.7,0.2c0.1,0.2,0.2,0.4,0.3,0.7h-2
		C46.8,4.6,46.8,4.5,46.9,4.4z"/>
	<rect x="50.4" y="1.4" class="st2" width="1.2" height="6"/>
	<rect x="52.2" y="1.4" class="st2" width="1.2" height="6"/>
	<path class="st2" d="M7.8,47.9l-2.3,6.2h1.4l0.5-1.4h2.3l0.5,1.4h1.4l-2.3-6.2H7.8z M7.7,51.7l0.8-2.3h0l0.8,2.3H7.7z"/>
	<path class="st2" d="M15.6,50c-0.1-0.2-0.3-0.3-0.5-0.4c-0.2-0.1-0.5-0.1-0.8-0.1c-0.3,0-0.5,0.1-0.8,0.2c-0.2,0.1-0.5,0.3-0.6,0.6
		h0v-0.6h-1.2v4.5H13v-2.3c0-0.5,0.1-0.8,0.2-1c0.2-0.2,0.4-0.3,0.7-0.3c0.3,0,0.5,0.1,0.6,0.3c0.1,0.2,0.2,0.5,0.2,0.8v2.5h1.2
		v-2.8c0-0.3,0-0.5-0.1-0.8C15.8,50.3,15.7,50.1,15.6,50z"/>
	<path class="st2" d="M20.1,50c-0.1-0.2-0.3-0.3-0.5-0.4c-0.2-0.1-0.5-0.1-0.8-0.1c-0.3,0-0.5,0.1-0.8,0.2c-0.2,0.1-0.5,0.3-0.6,0.6
		h0v-0.6h-1.2v4.5h1.2v-2.3c0-0.5,0.1-0.8,0.2-1c0.2-0.2,0.4-0.3,0.7-0.3c0.3,0,0.5,0.1,0.6,0.3c0.1,0.2,0.2,0.5,0.2,0.8v2.5h1.2
		v-2.8c0-0.3,0-0.5-0.1-0.8C20.3,50.3,20.3,50.1,20.1,50z"/>
	<rect x="20.1" y="47.9" class="st2" width="1.3" height="1"/>
	<rect x="20.9" y="49.6" class="st2" width="1.2" height="4.5"/>
	<polygon class="st2" points="25.5,49.6 24.6,52.6 24.5,52.6 23.6,49.6 22.3,49.6 23.8,54.1 25.2,54.1 26.7,49.6 	"/>
	<path class="st2" d="M30.4,50.3c-0.2-0.2-0.4-0.4-0.7-0.6c-0.3-0.1-0.6-0.2-1-0.2c-0.3,0-0.7,0.1-0.9,0.2c-0.3,0.1-0.5,0.3-0.7,0.5
		c-0.2,0.2-0.4,0.5-0.5,0.7c-0.1,0.3-0.2,0.6-0.2,0.9c0,0.3,0.1,0.7,0.2,1c0.1,0.3,0.3,0.5,0.5,0.7c0.2,0.2,0.4,0.4,0.7,0.5
		c0.3,0.1,0.6,0.2,1,0.2c0.5,0,0.9-0.1,1.3-0.3c0.4-0.2,0.6-0.6,0.8-1.2h-1.1c0,0.1-0.2,0.3-0.3,0.4c-0.2,0.1-0.4,0.2-0.6,0.2
		c-0.3,0-0.6-0.1-0.8-0.3c-0.2-0.2-0.3-0.5-0.3-0.9h3.2c0-0.3,0-0.7-0.1-1C30.7,50.8,30.6,50.5,30.4,50.3z M27.6,51.3
		c0-0.1,0-0.2,0.1-0.3c0-0.1,0.1-0.2,0.2-0.3c0.1-0.1,0.2-0.2,0.3-0.2c0.1-0.1,0.3-0.1,0.5-0.1c0.3,0,0.5,0.1,0.7,0.2
		c0.1,0.2,0.2,0.4,0.3,0.7H27.6z"/>
	<path class="st2" d="M33.4,49.5c-0.1,0-0.3,0.1-0.4,0.2c-0.1,0.1-0.2,0.2-0.3,0.3c-0.1,0.1-0.2,0.2-0.2,0.4h0v-0.8h-1.2v4.5h1.2v-2
		c0-0.2,0-0.4,0.1-0.6c0-0.2,0.1-0.3,0.2-0.5c0.1-0.1,0.2-0.2,0.4-0.3c0.2-0.1,0.3-0.1,0.6-0.1c0.1,0,0.2,0,0.2,0c0.1,0,0.2,0,0.2,0
		v-1.1c-0.1,0-0.2,0-0.3,0C33.6,49.5,33.5,49.5,33.4,49.5z"/>
	<path class="st2" d="M37.9,51.7c-0.1-0.1-0.3-0.2-0.5-0.2c-0.2-0.1-0.3-0.1-0.5-0.1c-0.2,0-0.3-0.1-0.5-0.1c-0.2,0-0.3-0.1-0.4-0.1
		c-0.1,0-0.2-0.1-0.3-0.2c-0.1-0.1-0.1-0.2-0.1-0.3c0-0.1,0-0.2,0.1-0.2c0-0.1,0.1-0.1,0.2-0.1c0.1,0,0.1,0,0.2-0.1
		c0.1,0,0.2,0,0.2,0c0.2,0,0.4,0,0.6,0.1c0.2,0.1,0.3,0.2,0.3,0.5h1.2c0-0.3-0.1-0.5-0.2-0.7c-0.1-0.2-0.3-0.3-0.4-0.4
		c-0.2-0.1-0.4-0.2-0.6-0.2c-0.2,0-0.5-0.1-0.7-0.1c-0.2,0-0.5,0-0.7,0.1c-0.2,0-0.4,0.1-0.6,0.2c-0.2,0.1-0.3,0.3-0.4,0.4
		c-0.1,0.2-0.2,0.4-0.2,0.7c0,0.2,0,0.4,0.1,0.5c0.1,0.1,0.2,0.2,0.3,0.3c0.1,0.1,0.3,0.2,0.5,0.2c0.2,0.1,0.3,0.1,0.5,0.1
		c0.4,0.1,0.8,0.2,1,0.3c0.2,0.1,0.4,0.2,0.4,0.4c0,0.1,0,0.2-0.1,0.3c-0.1,0.1-0.1,0.1-0.2,0.2c-0.1,0-0.2,0.1-0.3,0.1
		c-0.1,0-0.2,0-0.3,0c-0.1,0-0.2,0-0.4,0c-0.1,0-0.2-0.1-0.3-0.1c-0.1-0.1-0.2-0.1-0.2-0.2c-0.1-0.1-0.1-0.2-0.1-0.3h-1.2
		c0,0.3,0.1,0.6,0.2,0.7c0.1,0.2,0.3,0.4,0.5,0.5c0.2,0.1,0.4,0.2,0.7,0.3c0.2,0.1,0.5,0.1,0.8,0.1c0.3,0,0.5,0,0.7-0.1
		c0.2,0,0.5-0.1,0.7-0.3c0.2-0.1,0.3-0.3,0.5-0.5c0.1-0.2,0.2-0.4,0.2-0.7c0-0.2,0-0.4-0.1-0.5C38.1,52,38,51.8,37.9,51.7z"/>
	<path class="st2" d="M42.9,53.1v-2.3c0-0.3-0.1-0.5-0.2-0.7c-0.1-0.2-0.3-0.3-0.5-0.4c-0.2-0.1-0.4-0.2-0.6-0.2c-0.2,0-0.5,0-0.7,0
		c-0.2,0-0.5,0-0.7,0.1c-0.2,0-0.5,0.1-0.7,0.2c-0.2,0.1-0.4,0.3-0.5,0.5c-0.1,0.2-0.2,0.4-0.2,0.7H40c0-0.2,0.1-0.4,0.2-0.5
		c0.1-0.1,0.3-0.2,0.6-0.2c0.1,0,0.2,0,0.3,0c0.1,0,0.2,0,0.3,0.1c0.1,0,0.1,0.1,0.2,0.2c0,0.1,0.1,0.2,0.1,0.3c0,0.1,0,0.2-0.1,0.3
		c-0.1,0.1-0.2,0.1-0.3,0.2c-0.1,0-0.3,0.1-0.5,0.1c-0.2,0-0.4,0-0.5,0.1c-0.2,0-0.4,0.1-0.6,0.1c-0.2,0-0.3,0.1-0.5,0.2
		c-0.1,0.1-0.3,0.2-0.3,0.4c-0.1,0.2-0.1,0.4-0.1,0.6c0,0.2,0,0.4,0.1,0.6c0.1,0.2,0.2,0.3,0.3,0.4c0.1,0.1,0.3,0.2,0.5,0.2
		c0.2,0.1,0.4,0.1,0.6,0.1c0.3,0,0.5,0,0.8-0.1c0.3-0.1,0.5-0.2,0.7-0.4c0,0.1,0,0.1,0,0.2c0,0.1,0,0.1,0.1,0.2H43
		c-0.1-0.1-0.1-0.2-0.1-0.4C42.9,53.5,42.9,53.3,42.9,53.1z M41.6,52.3c0,0.1,0,0.2,0,0.3c0,0.1-0.1,0.2-0.1,0.3
		c-0.1,0.1-0.2,0.2-0.3,0.3c-0.1,0.1-0.3,0.1-0.6,0.1c-0.1,0-0.2,0-0.3,0c-0.1,0-0.2,0-0.2-0.1c-0.1,0-0.1-0.1-0.2-0.2
		c0-0.1-0.1-0.2-0.1-0.3c0-0.1,0-0.2,0.1-0.3c0-0.1,0.1-0.1,0.2-0.2c0.1,0,0.1-0.1,0.2-0.1c0.1,0,0.2-0.1,0.3-0.1c0.1,0,0.2,0,0.3,0
		c0.1,0,0.2,0,0.3,0c0.1,0,0.2,0,0.3-0.1c0.1,0,0.1-0.1,0.2-0.1V52.3z"/>
	<path class="st2" d="M45.5,49.5c-0.1,0-0.3,0.1-0.4,0.2c-0.1,0.1-0.2,0.2-0.3,0.3c-0.1,0.1-0.2,0.2-0.2,0.4h0v-0.8h-1.2v4.5h1.2v-2
		c0-0.2,0-0.4,0.1-0.6c0-0.2,0.1-0.3,0.2-0.5c0.1-0.1,0.2-0.2,0.4-0.3c0.2-0.1,0.3-0.1,0.6-0.1c0.1,0,0.2,0,0.2,0c0.1,0,0.2,0,0.2,0
		v-1.1c-0.1,0-0.2,0-0.3,0C45.8,49.5,45.6,49.5,45.5,49.5z"/>
	<path class="st2" d="M48.6,52.6L48.6,52.6l-1-3.1h-1.3l1.6,4.2c0,0.1,0.1,0.2,0.1,0.3c0,0.1,0,0.3-0.1,0.4
		c-0.1,0.1-0.2,0.2-0.4,0.2c-0.1,0-0.2,0-0.4,0c-0.1,0-0.2,0-0.4,0v1c0.1,0,0.3,0,0.4,0c0.1,0,0.2,0,0.4,0c0.4,0,0.8-0.1,1-0.2
		c0.2-0.2,0.4-0.4,0.6-0.8l1.9-5h-1.3L48.6,52.6z"/>
	<path class="st2" d="M52.5,13.3c-0.6,0-1.3,0.3-1.6,0.9h0v-2.7h-1.7v7.3h1.7v-2.9c0-0.6,0.3-1.1,0.9-1.1c1,0,0.9,0.7,0.9,1.5v2.6
		h1.7v-3.4C54.4,14.6,54.3,13.3,52.5,13.3z"/>
</g>
</svg>
