<?xml version="1.0" encoding="utf-8"?>
<!-- Generator: Adobe Illustrator 21.0.0, SVG Export Plug-In . SVG Version: 6.00 Build 0)  -->
<svg version="1.1" id="TFS_Logo" xmlns="http://www.w3.org/2000/svg" xmlns:xlink="http://www.w3.org/1999/xlink" x="0px" y="0px"
	 viewBox="0 0 110.7 26.7" style="enable-background:new 0 0 110.7 26.7;" xml:space="preserve">
<style type="text/css">
	.st0{fill:#EE3134;}
</style>
<g>
	<path class="st0" d="M11,3.6V1.3H0.6v2.3h3.6v10h3.2v-10H11L11,3.6z M51.1,13.7C51,12.9,51,12.2,51,11.8V7.6c0-1.7-1.3-2.8-2.9-2.8
		c-1.2,0-2.3,0.6-2.9,1.5c-0.4-1-1.4-1.5-2.4-1.5c-1.2,0-2.2,0.4-2.8,1.5L39.9,5H37v8.6h3V8.4c0-0.3-0.1-1.7,1.3-1.7
		c0.9,0,1.2,0.8,1.2,1.7v5.3h3V8.5c0-0.3-0.1-1.7,1.3-1.7c0.9,0,1.2,0.8,1.2,1.7v5.3h3.1V13.7z M36.2,7.6V5c-1.3,0-2.3,0.4-2.7,1.7
		l-0.1-1.6h-3c0.1,0.7,0.1,1.6,0.1,2.2v6.4h3V9.9c0-1.4,0.4-2.3,2.1-2.3C35.8,7.6,36,7.6,36.2,7.6L36.2,7.6z M56.3,4.8
		c-2.8,0-4.6,1.6-4.6,4.5c0,3,1.8,4.6,4.6,4.6c2.8,0,4.6-1.5,4.6-4.6C60.9,6.4,59.1,4.8,56.3,4.8L56.3,4.8z M56.3,6.7
		c1.3,0,1.5,1.3,1.5,2.7c0,1.6-0.3,2.8-1.5,2.8s-1.5-1.2-1.5-2.8C54.8,8,55,6.6,56.3,6.7L56.3,6.7L56.3,6.7z M20.4,13.7
		c-0.1-0.8-0.1-1.4-0.1-1.9V7.6c0-1.7-1.3-2.8-3-2.8c-0.5,0-1,0.1-1.4,0.3c-0.4,0.2-0.8,0.5-1.1,0.9V1.3h-3v12.4h3V8.5
		c0-0.3-0.1-1.7,1.3-1.7c1,0,1.2,0.8,1.2,1.7v5.3h3.1V13.7z M29.7,10c0-3.1-0.9-5.1-4.3-5.1c-2.7,0-4.3,1.7-4.3,4.3
		c0,3.2,1.1,4.8,4.5,4.8c1,0,2-0.2,2.7-0.7c0.8-0.5,1.4-1.3,1.5-2.4h-2.9c-0.1,0.8-0.5,1.3-1.5,1.3c-1.2,0-1.4-1.1-1.4-2.2L29.7,10
		L29.7,10z M26.8,8.3H24c0.1-0.9,0.3-1.8,1.4-1.9c0.5,0,0.9,0.2,1.1,0.6C26.7,7.4,26.8,7.9,26.8,8.3L26.8,8.3L26.8,8.3z"/>
	<path class="st0" d="M108.6,7.5V4.9c-1.3,0-2.3,0.4-2.7,1.7l-0.1-1.5h-3c0.1,0.7,0.1,1.6,0.1,2.2v6.4h3V9.9c0-1.4,0.4-2.4,2.1-2.5
		C108.2,7.4,108.4,7.4,108.6,7.5L108.6,7.5z M92.8,13.7c-0.1-0.8-0.1-1.4-0.1-1.9V7.6c0-1.7-1.3-2.8-3-2.8c-0.5,0-1,0.1-1.4,0.3
		S87.5,5.6,87.2,6V1.3h-3v12.4h3V8.5c0-0.3-0.1-1.7,1.3-1.7c1,0,1.2,0.8,1.2,1.7v5.3h3.1V13.7z M83.4,11.1c0-1.3-0.7-2-1.7-2.3
		c-1.8-0.6-3.2-0.7-3.2-1.4c0-0.5,0.3-0.8,0.8-0.8c0.4,0,0.6,0.1,0.8,0.3c0.2,0.2,0.2,0.4,0.2,0.8h2.9c-0.1-2.3-1.8-2.9-3.8-2.9
		c-1.7,0-3.8,0.6-3.8,2.7c0,3,4.9,2.2,4.9,3.8c0,0.6-0.5,0.8-1.1,0.8c-0.3,0-0.6-0.2-0.8-0.4c-0.2-0.2-0.2-0.5-0.2-0.8h-2.9
		c-0.1,2.6,1.8,3,4,3C81.4,13.9,83.4,13.2,83.4,11.1L83.4,11.1z M102.1,10c0-3.1-0.9-5.1-4.3-5.1c-2.7,0-4.3,1.7-4.3,4.3
		c0,3.2,1.1,4.8,4.5,4.8c1,0,2-0.2,2.7-0.7c0.8-0.5,1.4-1.3,1.5-2.4h-2.9c-0.1,0.8-0.5,1.3-1.5,1.3c-1.2,0-1.4-1.1-1.4-2.2L102.1,10
		L102.1,10z M99.2,8.3h-2.8c0.1-0.9,0.3-1.8,1.4-1.9c0.5,0,0.9,0.2,1.1,0.6C99.1,7.4,99.2,7.9,99.2,8.3L99.2,8.3L99.2,8.3z
		 M74.7,13.7V5.1h-3v8.6H74.7L74.7,13.7z M70.7,3.6l0.7-2.3h-8.2v12.4h3.2V8.8H69l0.7-2.3h-3.3V3.6H70.7L70.7,3.6z M74.7,3.6
		l0.7-2.3h-3l-0.7,2.3H74.7L74.7,3.6z"/>
	<path d="M28.6,24.3v-7h1.1v7H28.6L28.6,24.3z M103.8,24.4c-2.3,0-4.1-1.3-4.1-3.6s2-3.7,4.2-3.7c0.8,0,1.6,0.3,2.2,0.6l-0.6,0.7
		c-0.5-0.3-1-0.5-1.6-0.5c-0.8,0-1.7,0.2-2.2,0.9c-0.5,0.5-0.7,1.1-0.7,2c0,1,0.3,1.5,0.8,2s1.4,0.7,2.2,0.7c0.6,0,1.3-0.2,1.8-0.5
		l0.5,0.7C105.7,24.2,104.7,24.4,103.8,24.4L103.8,24.4z M92.1,24.3v-7h1.1v7H92.1L92.1,24.3z M66.8,18.2h-2.6v6.2h-1.1v-6.2h-2.6
		v-0.8h6.4L66.8,18.2L66.8,18.2z M8.6,24.1c-0.5,0.3-1.2,0.4-2,0.4c-1,0-2-0.2-2.8-0.6l0.5-0.8c0.8,0.4,1.6,0.6,2.4,0.6
		c0.6,0,0.9-0.1,1.3-0.3c0.4-0.2,0.6-0.5,0.6-0.9c0-0.6-0.4-0.9-1.5-1.2L6,21c-1.1-0.3-1.8-1-1.8-1.8c0-1.2,1.2-2,2.8-2
		c1,0,2,0.2,2.7,0.7l-0.5,0.7C8.5,18.2,7.8,18,7.1,18c-1,0-1.7,0.4-1.7,1c0,0.5,0.4,0.8,1.4,1l1.1,0.3c0.6,0.1,1.2,0.4,1.6,0.7
		c0.3,0.3,0.5,0.8,0.5,1.3C9.8,23,9.4,23.7,8.6,24.1L8.6,24.1z M53.5,24.3l-2.8-3.7c-0.5-0.7-1.4-2.1-1.4-2.1s0.1,1.2,0.1,2.2v3.6
		h-1.1v-7h1.3l2.8,3.8c0.5,0.7,1.3,1.9,1.3,1.9s-0.2-1.3-0.2-2.2v-3.5h1.1v7H53.5L53.5,24.3z M72.7,24.3v-7h1.1v7H72.7L72.7,24.3z
		 M86,18.1h-3.8v2.1h3.3V21h-3.3v3.3h-1.1v-7h5.1L86,18.1L86,18.1z M36.9,24.3v-7h5.2L42,18.1h-3.9v2.1h3.3V21h-3.3v2.4h4.2v0.9
		H36.9L36.9,24.3z M19.9,24.4c-2.3,0-4.1-1.3-4.1-3.6s2-3.7,4.2-3.7c0.8,0,1.6,0.3,2.2,0.6l-0.6,0.7c-0.5-0.3-1-0.5-1.6-0.5
		c-0.8,0-1.7,0.2-2.2,0.9c-0.5,0.5-0.7,1.1-0.7,2c0,1,0.3,1.5,0.8,2s1.4,0.7,2.2,0.7c0.6,0,1.3-0.2,1.8-0.5l0.5,0.7
		C21.8,24.2,20.9,24.4,19.9,24.4L19.9,24.4z"/>
</g>
</svg>
