<?xml version="1.0" encoding="utf-8"?>
<!-- Generator: Adobe Illustrator 16.0.4, SVG Export Plug-In . SVG Version: 6.00 Build 0)  -->
<!DOCTYPE svg PUBLIC "-//W3C//DTD SVG 1.1//EN" "http://www.w3.org/Graphics/SVG/1.1/DTD/svg11.dtd">
<svg version="1.1" id="Layer_1" xmlns="http://www.w3.org/2000/svg" xmlns:xlink="http://www.w3.org/1999/xlink" x="0px" y="0px"
	 width="707.281px" height="146.303px" viewBox="0 0 707.281 146.303" enable-background="new 0 0 707.281 146.303"
	 xml:space="preserve">
<g>
	<rect x="280.02" y="82.504" fill="#FFFFFF" width="21.891" height="6.252"/>
	<rect x="280.02" y="71.22" fill="#FFFFFF" width="21.884" height="9.379"/>
	<rect x="256.219" y="82.504" fill="#FFFFFF" width="21.89" height="6.252"/>
	<rect x="256.219" y="71.22" fill="#FFFFFF" width="21.887" height="9.379"/>
	<rect x="256.219" y="59.928" fill="#FFFFFF" width="21.887" height="9.382"/>
	<rect x="232.421" y="82.504" fill="#FFFFFF" width="21.89" height="6.252"/>
	<rect x="232.418" y="71.22" fill="#FFFFFF" width="21.887" height="9.379"/>
	<rect x="232.418" y="59.928" fill="#FFFFFF" width="21.887" height="9.382"/>
	<rect x="208.624" y="82.504" fill="#FFFFFF" width="21.887" height="6.252"/>
	<rect x="208.624" y="71.22" fill="#FFFFFF" width="21.887" height="9.379"/>
	<rect x="208.624" y="59.928" fill="#FFFFFF" width="21.887" height="9.382"/>
	<rect x="184.829" y="82.504" fill="#FFFFFF" width="21.887" height="6.252"/>
	<rect x="184.829" y="71.22" fill="#FFFFFF" width="21.881" height="9.379"/>
	<rect x="184.829" y="59.928" fill="#FFFFFF" width="21.881" height="9.382"/>
	<rect x="161.025" y="82.504" fill="#FFFFFF" width="21.893" height="6.252"/>
	<rect x="161.025" y="71.22" fill="#FFFFFF" width="21.89" height="9.379"/>
	<rect x="161.025" y="59.928" fill="#FFFFFF" width="21.89" height="9.379"/>
	<rect x="422.863" y="82.504" fill="#FFFFFF" width="21.891" height="6.252"/>
	<rect x="422.863" y="71.22" fill="#FFFFFF" width="21.885" height="9.379"/>
	<rect x="422.863" y="59.928" fill="#FFFFFF" width="21.885" height="9.379"/>
	<rect x="399.062" y="82.504" fill="#FFFFFF" width="21.891" height="6.252"/>
	<rect x="399.062" y="71.22" fill="#FFFFFF" width="21.887" height="9.379"/>
	<rect x="399.062" y="59.928" fill="#FFFFFF" width="21.887" height="9.382"/>
	<rect x="375.265" y="82.504" fill="#FFFFFF" width="21.892" height="6.252"/>
	<rect x="375.262" y="71.22" fill="#FFFFFF" width="21.888" height="9.379"/>
	<rect x="375.262" y="59.928" fill="#FFFFFF" width="21.888" height="9.382"/>
	<rect x="351.467" y="82.504" fill="#FFFFFF" width="21.887" height="6.252"/>
	<rect x="351.467" y="71.22" fill="#FFFFFF" width="21.887" height="9.379"/>
	<rect x="351.467" y="59.928" fill="#FFFFFF" width="21.887" height="9.382"/>
	<rect x="518.191" y="82.504" fill="#FFFFFF" width="21.891" height="6.252"/>
	<rect x="518.191" y="71.22" fill="#FFFFFF" width="21.885" height="9.379"/>
	<rect x="518.191" y="59.928" fill="#FFFFFF" width="21.885" height="9.379"/>
	<rect x="494.391" y="82.504" fill="#FFFFFF" width="21.892" height="6.252"/>
	<rect x="494.391" y="71.22" fill="#FFFFFF" width="21.889" height="9.379"/>
	<rect x="494.391" y="59.928" fill="#FFFFFF" width="21.889" height="9.382"/>
	<rect x="470.594" y="82.504" fill="#FFFFFF" width="21.891" height="6.252"/>
	<rect x="470.59" y="71.22" fill="#FFFFFF" width="21.887" height="9.379"/>
	<rect x="470.59" y="59.928" fill="#FFFFFF" width="21.887" height="9.382"/>
	<rect x="446.795" y="82.504" fill="#FFFFFF" width="21.888" height="6.252"/>
	<rect x="446.795" y="71.22" fill="#FFFFFF" width="21.888" height="9.379"/>
	<rect x="446.795" y="59.928" fill="#FFFFFF" width="21.888" height="9.382"/>
	<rect x="327.672" y="82.504" fill="#FFFFFF" width="21.887" height="6.252"/>
	<rect x="327.672" y="71.22" fill="#FFFFFF" width="21.881" height="9.379"/>
	<rect x="327.672" y="59.928" fill="#FFFFFF" width="21.881" height="9.382"/>
	<rect x="303.868" y="82.504" fill="#FFFFFF" width="21.894" height="6.252"/>
	<rect x="303.868" y="71.22" fill="#FFFFFF" width="21.89" height="9.379"/>
	<rect x="280.02" y="59.928" fill="#FFFFFF" width="21.884" height="9.379"/>
	<rect x="303.868" y="59.928" fill="#FFFFFF" width="21.89" height="9.379"/>
	<rect x="280.02" y="49.057" fill="#FFFFFF" width="21.884" height="9.379"/>
	<rect x="256.219" y="49.057" fill="#FFFFFF" width="21.887" height="9.379"/>
	<rect x="232.418" y="49.057" fill="#FFFFFF" width="21.887" height="9.379"/>
	<rect x="208.624" y="49.057" fill="#FFFFFF" width="21.887" height="9.379"/>
	<rect x="184.829" y="49.057" fill="#FFFFFF" width="21.881" height="9.379"/>
	<rect x="161.025" y="49.057" fill="#FFFFFF" width="21.89" height="9.379"/>
	<rect x="137.528" y="82.504" fill="#FFFFFF" width="21.894" height="6.252"/>
	<rect x="137.528" y="71.22" fill="#FFFFFF" width="21.89" height="9.379"/>
	<rect x="137.528" y="59.928" fill="#FFFFFF" width="21.89" height="9.379"/>
	<rect x="113.659" y="82.504" fill="#FFFFFF" width="21.893" height="6.252"/>
	<rect x="113.659" y="71.22" fill="#FFFFFF" width="21.89" height="9.379"/>
	<rect x="113.659" y="59.928" fill="#FFFFFF" width="21.89" height="9.379"/>
	<rect x="89.79" y="71.22" fill="#FFFFFF" width="21.89" height="9.379"/>
	<rect x="89.79" y="59.928" fill="#FFFFFF" width="21.89" height="9.379"/>
	<rect x="422.863" y="49.057" fill="#FFFFFF" width="21.885" height="9.379"/>
	<rect x="399.062" y="49.057" fill="#FFFFFF" width="21.887" height="9.379"/>
	<rect x="375.262" y="49.057" fill="#FFFFFF" width="21.888" height="9.379"/>
	<rect x="351.467" y="49.057" fill="#FFFFFF" width="21.887" height="9.379"/>
	<rect x="518.191" y="49.057" fill="#FFFFFF" width="21.885" height="9.379"/>
	<rect x="494.391" y="49.057" fill="#FFFFFF" width="21.889" height="9.379"/>
	<rect x="470.59" y="49.057" fill="#FFFFFF" width="21.887" height="9.379"/>
	<rect x="446.795" y="49.057" fill="#FFFFFF" width="21.888" height="9.379"/>
	<rect x="613.482" y="82.504" fill="#FFFFFF" width="21.891" height="6.252"/>
	<rect x="613.482" y="71.22" fill="#FFFFFF" width="21.885" height="9.379"/>
	<rect x="613.482" y="59.928" fill="#FFFFFF" width="21.885" height="9.379"/>
	<rect x="589.682" y="82.504" fill="#FFFFFF" width="21.892" height="6.252"/>
	<rect x="589.682" y="71.22" fill="#FFFFFF" width="21.888" height="9.379"/>
	<rect x="589.682" y="59.928" fill="#FFFFFF" width="21.888" height="9.382"/>
	<rect x="565.885" y="82.504" fill="#FFFFFF" width="21.891" height="6.252"/>
	<rect x="565.881" y="71.22" fill="#FFFFFF" width="21.887" height="9.379"/>
	<rect x="565.881" y="59.928" fill="#FFFFFF" width="21.887" height="9.382"/>
	<rect x="542.086" y="82.504" fill="#FFFFFF" width="21.887" height="6.252"/>
	<rect x="542.086" y="71.22" fill="#FFFFFF" width="21.887" height="9.379"/>
	<rect x="542.086" y="59.928" fill="#FFFFFF" width="21.887" height="9.382"/>
	<rect x="565.881" y="49.057" fill="#FFFFFF" width="21.887" height="9.379"/>
	<rect x="542.086" y="49.057" fill="#FFFFFF" width="21.887" height="9.379"/>
	<rect x="327.672" y="49.057" fill="#FFFFFF" width="21.881" height="9.379"/>
	<rect x="303.868" y="49.057" fill="#FFFFFF" width="21.89" height="9.379"/>
	<polygon fill="#FFFFFF" points="69.71,36.332 72.055,32.375 33.273,32.375 33.273,36.332 	"/>
	<polygon fill="#FFFFFF" points="63.965,47.574 68.662,37.98 33.273,37.98 33.273,47.574 	"/>
	<path fill="#FFFFFF" d="M0,107.094c0,0.009,0,0.015,0,0.023v4.813h684.216c10.443-15.669,15.045-15.962,21.775-26.683
		c1.076-0.685,1.551-2.011,1.145-3.231c-0.405-1.205-1.573-2.086-2.854-1.891c-0.994,0.076-54.646,4.403-99.715,4.403
		c-0.738,0-1.445,0.286-1.965,0.812l-6.804,2.319H581.72c-0.737,0-1.446,0.293-1.966,0.812l-6.803,1.768H133.445l-14.418-7.145
		c-0.52-0.521-1.235-0.813-1.973-0.813H25.643c-0.738,0-1.461,0.293-1.966,0.813l-6.802,3.438H2.788C1.251,86.536,0,87.779,0,89.323
		V107.094z"/>
	<path fill="#FFFFFF" d="M15.428,114.856H2.238v21.766c0,1.119,1.251,2.025,2.788,2.025h7.616c1.552,0,2.787-0.906,2.787-2.025
		v-21.766H15.428z"/>
	<path fill="#FFFFFF" d="M682.711,114.856H20.204c9.107,3.683,11.545,4.194,18.608,6.674c7.063,2.479-1.129,6.771-9.603,8.134
		c0,0.873,0.022,0.917,0.022,1.937c5.944,5.586,14.277,11.734,24.534,14.701h589.729c34.311,0,72.006-19.621,29.807-19.621
		C675.438,123.529,679.711,118.626,682.711,114.856z"/>
	<path fill="#FFFFFF" d="M41.141,35.065h1.378V1.759c0-0.972-0.306-1.759-0.69-1.759c-0.38,0-0.688,0.787-0.688,1.759V35.065z"/>
	<rect x="12.631" y="106.676" fill="#FFFFFF" width="2.797" height="13.054"/>
	<path fill="#FFFFFF" d="M27.609,130.422c0.302-1.499,0.229-3.021,0.522-4.651c0.16-0.888,1.042-4.951-1.579-4.492
		c-1.735,0.304-4.269,2.688-4.198,3.994c0.132,2.416,3.484,3.582,4.94,5.481"/>
	<path fill="#FFFFFF" d="M27.609,130.467c0.302,1.499,0.229,3.021,0.522,4.65c0.16,0.888,1.042,4.952-1.579,4.493
		c-1.735-0.303-4.269-2.688-4.198-3.995c0.132-2.415,3.484-3.581,4.94-5.481"/>
	<rect x="33.273" y="47.253" fill="#FFFFFF" width="32.777" height="35.896"/>
	<rect x="41.208" y="74.496" fill="#FFFFFF" width="32.777" height="10.755"/>
</g>
</svg>
